# xmcd
#
# Track frame offsets: 
#        150
#        17548
#        38620
#        53937
#        67475
#        87067
#        109381
#        124372
#
# Disc length: 1925 seconds
#
# Revision: 0
# Processed by: cddbd v1.5.2PL0 Copyright (c) Steve Scherf et al.
# Submitted via: ExactAudioCopy v0.99pb4
#
DISCID=6d078308
DTITLE=Not Shakespeare - No Sunshine In TV
DYEAR=2008
DGENRE=Blues
TTITLE0=Pardise In Me
TTITLE1=No Sunshine In TV
TTITLE2=Lonely Bar
TTITLE3=32-20 Blues
TTITLE4=Not Your Friends
TTITLE5=Wish She Was Here
TTITLE6=Hey You
TTITLE7=Smaller Than The Moon
EXTD=
EXTT0=
EXTT1=
EXTT2=
EXTT3=
EXTT4=
EXTT5=
EXTT6=
EXTT7=
PLAYORDER=
